<?xml version="1.0" standalone="no"?>
<!DOCTYPE svg PUBLIC "-//W3C//DTD SVG 20010904//EN"
 "http://www.w3.org/TR/2001/REC-SVG-20010904/DTD/svg10.dtd">
<svg version="1.0" xmlns="http://www.w3.org/2000/svg"
 width="185.000000pt" height="58.000000pt" viewBox="0 0 185.000000 58.000000"
 preserveAspectRatio="xMidYMid meet">

<g transform="translate(0.000000,58.000000) scale(0.100000,-0.100000)"
fill="#000000" stroke="none">
<path d="M119 533 c-46 -29 -62 -67 -55 -132 6 -52 4 -60 -19 -85 -31 -33 -32
-60 -3 -80 20 -14 21 -19 10 -66 -20 -88 12 -126 101 -117 54 5 69 19 58 51
-6 15 -18 22 -44 24 l-36 3 6 44 c3 26 1 56 -6 73 -9 22 -9 34 3 56 8 15 13
33 12 39 -2 7 -6 28 -10 48 -10 47 5 75 44 83 28 5 31 9 28 38 -3 29 -7 33
-33 35 -16 2 -42 -4 -56 -14z"/>
<path d="M515 538 c-83 -12 -86 -19 -79 -226 4 -98 11 -183 16 -189 24 -30 78
4 78 49 0 15 13 11 82 -22 92 -45 100 -46 122 -24 27 26 20 63 -15 82 -66 37
-66 36 -15 71 26 18 56 47 67 64 23 39 25 95 3 125 -36 52 -159 85 -259 70z
m149 -108 c50 -19 21 -72 -56 -105 -70 -29 -78 -24 -78 50 l0 65 54 0 c30 0
66 -4 80 -10z"/>
<path d="M945 534 c-84 -43 -120 -109 -120 -219 1 -65 5 -88 23 -120 46 -82
128 -108 208 -67 48 24 69 47 89 95 20 48 19 100 -3 127 -24 30 -90 37 -147
16 -48 -19 -63 -43 -45 -76 9 -16 21 -20 65 -20 30 0 55 -3 55 -6 0 -17 -24
-46 -51 -60 -28 -14 -33 -14 -55 1 -32 20 -44 53 -44 116 0 55 19 100 51 123
20 13 26 13 61 -5 45 -23 75 -18 87 14 12 32 1 57 -33 78 -38 23 -100 24 -141
3z"/>
<path d="M1624 537 c-3 -9 -4 -23 -2 -33 3 -15 11 -22 58 -44 12 -6 14 -23 12
-77 -2 -46 2 -74 11 -87 12 -16 12 -23 1 -45 -9 -17 -12 -42 -8 -73 6 -46 6
-48 -19 -48 -40 0 -57 -10 -57 -36 0 -49 109 -65 150 -22 23 25 25 54 8 111
-10 32 -10 41 0 45 16 5 42 31 42 42 0 5 -14 25 -30 44 -28 32 -30 37 -21 76
18 81 -23 147 -98 157 -31 4 -42 2 -47 -10z"/>
<path d="M1325 510 c-30 -59 -133 -377 -125 -390 26 -43 79 36 150 223 43 115
51 181 24 191 -27 10 -33 7 -49 -24z"/>
<path d="M301 344 c-67 -60 -65 -79 8 -116 41 -21 58 -25 72 -17 26 13 24 46
-3 60 -13 6 -25 13 -27 15 -2 1 7 17 19 33 24 34 23 64 -1 69 -9 1 -39 -18
-68 -44z"/>
<path d="M1441 376 c-14 -16 -4 -43 23 -66 22 -17 20 -25 -9 -38 -30 -14 -33
-47 -7 -61 14 -8 32 -3 73 19 72 38 73 55 8 114 -55 49 -70 54 -88 32z"/>
</g>
</svg>
